{
  "accessors": [
    {
      "bufferView": 0,
      "componentType": 5123,
      "count": 15012,
      "max": [
        2794
      ],
      "min": [
        0
      ],
      "type": "SCALAR"
    },
    {
      "bufferView": 1,
      "componentType": 5126,
      "count": 2795,
      "max": [
        13.086345672607422,
        23.88261604309082,
        -37.27667236328125
      ],
      "min": [
        -13.086349487304688,
        0.0011083690915256739,
        -70.185928344726563
      ],
      "type": "VEC3"
    },
    {
      "bufferView": 2,
      "componentType": 5126,
      "count": 2795,
      "max": [
        1,
        0.99999642372131348,
        0.99999994039535522
      ],
      "min": [
        -1,
        -0.99999672174453735,
        -0.99997985363006592
      ],
      "type": "VEC3"
    },
    {
      "bufferView": 0,
      "byteOffset": 30024,
      "componentType": 5123,
      "count": 26946,
      "max": [
        7075
      ],
      "min": [
        0
      ],
      "type": "SCALAR"
    },
    {
      "bufferView": 1,
      "byteOffset": 33540,
      "componentType": 5126,
      "count": 7076,
      "max": [
        8.8676509857177734,
        20.016040802001953,
        -39.625179290771484
      ],
      "min": [
        -8.7161846160888672,
        6.5123701095581055,
        -64.513992309570313
      ],
      "type": "VEC3"
    },
    {
      "bufferView": 2,
      "byteOffset": 33540,
      "componentType": 5126,
      "count": 7076,
      "max": [
        1,
        0.99999910593032837,
        0.99998503923416138
      ],
      "min": [
        -1,
        -0.99999940395355225,
        -0.99998176097869873
      ],
      "type": "VEC3"
    },
    {
      "bufferView": 0,
      "byteOffset": 83916,
      "componentType": 5123,
      "count": 78042,
      "max": [
        13366
      ],
      "min": [
        0
      ],
      "type": "SCALAR"
    },
    {
      "bufferView": 1,
      "byteOffset": 118452,
      "componentType": 5126,
      "count": 13367,
      "max": [
        11.538822174072266,
        40.610084533691406,
        -37.362312316894531
      ],
      "min": [
        -11.425023078918457,
        6.6334042549133301,
        -70.306228637695313
      ],
      "type": "VEC3"
    },
    {
      "bufferView": 2,
      "byteOffset": 118452,
      "componentType": 5126,
      "count": 13367,
      "max": [
        0.99999803304672241,
        0.99999994039535522,
        0.9999995231628418
      ],
      "min": [
        -0.9999995231628418,
        -0.99999946355819702,
        -0.99999499320983887
      ],
      "type": "VEC3"
    }
  ],
  "asset": {
    "generator": "Created by RapidCompact v3.0.0 | www.rapidcompact.com",
    "version": "2.0"
  },
  "bufferViews": [
    {
      "buffer": 0,
      "byteLength": 240000,
      "byteOffset": 0,
      "target": 34963
    },
    {
      "buffer": 0,
      "byteLength": 278856,
      "byteOffset": 240000,
      "byteStride": 12,
      "target": 34962
    },
    {
      "buffer": 0,
      "byteLength": 278856,
      "byteOffset": 518856,
      "byteStride": 12,
      "target": 34962
    }
  ],
  "buffers": [
    {
      "byteLength": 797712,
      "uri": "scene.data.bin"
    }
  ],
  "materials": [
    {
      "pbrMetallicRoughness": {
        "baseColorFactor": [
          1,
          1,
          1,
          1
        ],
        "metallicFactor": 0,
        "roughnessFactor": 0.5
      }
    },
    {
      "pbrMetallicRoughness": {
        "baseColorFactor": [
          1,
          1,
          1,
          1
        ],
        "metallicFactor": 0,
        "roughnessFactor": 0.5
      }
    },
    {
      "pbrMetallicRoughness": {
        "baseColorFactor": [
          1,
          1,
          1,
          1
        ],
        "metallicFactor": 0,
        "roughnessFactor": 0.5
      }
    }
  ],
  "meshes": [
    {
      "primitives": [
        {
          "attributes": {
            "NORMAL": 2,
            "POSITION": 1
          },
          "indices": 0,
          "material": 0,
          "mode": 4
        },
        {
          "attributes": {
            "NORMAL": 5,
            "POSITION": 4
          },
          "indices": 3,
          "material": 1,
          "mode": 4
        },
        {
          "attributes": {
            "NORMAL": 8,
            "POSITION": 7
          },
          "indices": 6,
          "material": 2,
          "mode": 4
        }
      ]
    }
  ],
  "nodes": [
    {
      "matrix": [
        1,
        0,
        0,
        0,
        0,
        1,
        0,
        0,
        0,
        0,
        1,
        0,
        0,
        0,
        0,
        1
      ],
      "mesh": 0
    }
  ],
  "scene": 0,
  "scenes": [
    {
      "nodes": [
        0
      ]
    }
  ]
}
